<svg xmlns="http://www.w3.org/2000/svg" width="2200" height="650" viewBox="0 0 2200 650">

<g>
<polygon points="20,210 110,105 155,150 220,65 285,155 350,100 470,215" fill="#767B80"/>
<polygon points="190,112 220,65 250,112 230,100 216,128" fill="#F8F8F8"/>
<polygon points="325,132 350,100 380,140 355,125 342,152" fill="#F8F8F8"/>
<polygon points="90,215 235,20 390,215 350,215 235,70 130,215" fill="#D4AF37"/>
<polyline points="145,215 235,95 330,215" fill="none" stroke="#6B6F72" stroke-width="12"/>
<polygon points="170,215 235,120 305,215" fill="#111111"/>
<rect x="217" y="145" width="16" height="16" fill="#F8F8F8"/><rect x="239" y="145" width="16" height="16" fill="#F8F8F8"/>
<rect x="217" y="167" width="16" height="16" fill="#F8F8F8"/><rect x="239" y="167" width="16" height="16" fill="#F8F8F8"/>
</g>
<text x="520" y="250" font-family="Montserrat,Arial,sans-serif" font-size="150" font-weight="800" fill="#F8F8F8">AFFORDABLE</text>
<text x="525" y="380" font-family="Montserrat,Arial,sans-serif" font-size="92" font-weight="800" fill="#D4AF37">HOME SERVICES</text>
<text x="530" y="465" font-family="Montserrat,Arial,sans-serif" font-size="38" letter-spacing="6" fill="#F8F8F8">UTAH'S EXTERIOR HOME SERVICE EXPERTS</text>
</svg>